<svg width="805" height="601" viewBox="0 0 805 601" fill="none" xmlns="http://www.w3.org/2000/svg">
<path d="M776.988 358.284C665.848 565.494 494.498 588.214 494.498 588.214C466.89 593.121 439.046 596.589 411.078 598.604C409.308 598.744 407.538 598.854 405.758 598.954C228.028 610.124 126.588 548.954 70.2578 488.114C12.0878 425.304 -12.6622 337.994 6.26784 254.534C38.6378 111.824 176.378 65.7935 176.378 65.7935C206.168 53.9935 238.378 49.3735 269.448 48.8935C351.898 47.5835 426.298 75.3735 426.298 75.3735C448.222 82.9192 470.542 89.262 493.158 94.3735C539.208 104.534 561.088 102.374 561.088 102.374C642.018 89.2335 697.268 102.254 697.268 102.254C775.988 118.924 799.378 177.924 803.918 229.924C807.798 274.384 798.068 318.984 776.988 358.284Z" fill="#00C975"/>
<path opacity="0.7" d="M776.978 358.284C677.748 543.284 530.478 581.234 500.058 587.284C496.408 588.004 494.438 588.284 494.438 588.284C487.178 589.557 480.025 590.724 472.978 591.784L472.208 591.893C450.875 595.087 430.481 597.347 411.028 598.674C409.258 598.804 407.478 598.924 405.708 599.014C393.168 599.807 381.008 600.244 369.228 600.324H368.438C357.398 600.404 346.681 600.194 336.288 599.694C288.748 597.444 247.798 589.504 212.548 577.874C188.635 570.075 165.619 559.757 143.888 547.094C143.568 546.934 143.258 546.744 142.938 546.544C140.278 544.994 137.638 543.383 135.068 541.773C111.167 526.857 89.3533 508.833 70.198 488.174C12.078 425.304 -12.662 337.994 6.25801 254.534C38.628 111.824 176.368 65.8035 176.368 65.8035C206.168 54.0035 238.368 49.3735 269.448 48.8935C351.898 47.5835 426.288 75.3835 426.288 75.3835C448.215 82.9037 470.535 89.2263 493.148 94.3235C539.208 104.484 561.078 102.324 561.078 102.324C642.008 89.1835 697.268 102.214 697.268 102.214C775.988 118.924 799.368 177.924 803.908 229.924C807.788 274.394 798.058 318.984 776.978 358.284Z" fill="white"/>
<path d="M773.878 525.354H32.5381V525.724H773.878V525.354Z" fill="#EBEBEB"/>
<path d="M198.098 537.794H148.988V538.164H198.098V537.794Z" fill="#EBEBEB"/>
<path d="M274.958 548.484H230.228V548.854H274.958V548.484Z" fill="#EBEBEB"/>
<path d="M173.538 551.554H116.828V551.924H173.538V551.554Z" fill="#EBEBEB"/>
<path d="M699.598 550.754H676.028V551.124H699.598V550.754Z" fill="#EBEBEB"/>
<path d="M671.268 550.754H612.968V551.124H671.268V550.754Z" fill="#EBEBEB"/>
<path d="M448.178 537.604H403.208V537.974H448.178V537.604Z" fill="#EBEBEB"/>
<path d="M561.518 537.604H454.618V537.974H561.518V537.604Z" fill="#EBEBEB"/>
<path d="M383.938 459.224H97.6482C95.4062 459.221 93.257 458.329 91.6726 456.742C90.0882 455.156 89.1982 453.006 89.1982 450.764V48.3138C89.2193 46.0848 90.1182 43.9539 91.7001 42.3833C93.2819 40.8127 95.4191 39.929 97.6482 39.9238H383.938C386.185 39.9238 388.339 40.8162 389.927 42.4046C391.516 43.9931 392.408 46.1474 392.408 48.3938V450.764C392.406 453.008 391.512 455.16 389.924 456.747C388.336 458.333 386.183 459.224 383.938 459.224ZM97.6482 40.2238C95.5044 40.2265 93.4492 41.08 91.9342 42.5969C90.4192 44.1138 89.5682 46.17 89.5682 48.3138V450.764C89.5682 452.908 90.4192 454.964 91.9342 456.481C93.4492 457.998 95.5044 458.851 97.6482 458.854H383.938C386.083 458.851 388.139 457.998 389.656 456.481C391.172 454.965 392.026 452.909 392.028 450.764V48.3138C392.028 46.1682 391.176 44.1105 389.659 42.5933C388.142 41.0762 386.084 40.2238 383.938 40.2238H97.6482Z" fill="#EBEBEB"/>
<path d="M704.658 459.224H418.348C416.105 459.221 413.955 458.329 412.369 456.743C410.783 455.157 409.891 453.007 409.888 450.764V48.3138C409.912 46.0839 410.813 43.953 412.396 42.3827C413.98 40.8124 416.118 39.929 418.348 39.9238H704.658C706.884 39.9342 709.016 40.8203 710.594 42.3903C712.171 43.9604 713.067 46.0882 713.088 48.3138V450.764C713.088 453.002 712.201 455.15 710.621 456.735C709.041 458.321 706.897 459.216 704.658 459.224ZM418.348 40.2238C416.203 40.2238 414.145 41.0762 412.628 42.5933C411.111 44.1105 410.258 46.1682 410.258 48.3138V450.764C410.263 452.908 411.117 454.962 412.634 456.478C414.15 457.995 416.204 458.849 418.348 458.854H704.658C706.803 458.851 708.859 457.998 710.376 456.481C711.892 454.965 712.746 452.909 712.748 450.764V48.3138C712.748 46.1682 711.896 44.1105 710.379 42.5933C708.861 41.0762 706.804 40.2238 704.658 40.2238H418.348Z" fill="#EBEBEB"/>
<path d="M646.303 285.733L436.964 495.072L459.683 517.792L669.022 308.453L646.303 285.733Z" fill="#EBEBEB"/>
<path d="M569.168 408.293L546.458 385.563L515.478 416.543L536.318 449.763L569.168 408.293Z" fill="#E0E0E0"/>
<path d="M669.031 308.446L459.692 517.785L467.258 525.351L676.597 316.012L669.031 308.446Z" fill="#E0E0E0"/>
<path d="M459.696 293.292L436.977 316.012L646.316 525.351L669.035 502.631L459.696 293.292Z" fill="#EBEBEB"/>
<path d="M467.256 285.731L459.69 293.297L669.029 502.636L676.595 495.07L467.256 285.731Z" fill="#E0E0E0"/>
<path d="M276.111 338.864L113.187 501.788L130.871 519.473L293.796 356.548L276.111 338.864Z" fill="#EBEBEB"/>
<path d="M216.068 434.244L198.378 416.574L174.288 440.674L190.488 466.524L216.068 434.244Z" fill="#E0E0E0"/>
<path d="M293.78 356.548L130.856 519.473L136.746 525.363L299.671 362.438L293.78 356.548Z" fill="#E0E0E0"/>
<path d="M130.876 344.759L113.191 362.443L276.116 525.368L293.801 507.683L130.876 344.759Z" fill="#EBEBEB"/>
<path d="M136.741 338.856L130.851 344.746L293.775 507.671L299.665 501.78L136.741 338.856Z" fill="#E0E0E0"/>
<path d="M505.328 366.273H479.218V525.333H505.328V366.273Z" fill="#F5F5F5"/>
<path d="M505.328 432.374H479.218V451.454L505.328 445.824V432.374Z" fill="#EBEBEB"/>
<path d="M514.008 366.294H505.308V525.354H514.008V366.294Z" fill="#EBEBEB"/>
<path d="M231.818 366.273H205.708V525.333H231.818V366.273Z" fill="#F5F5F5"/>
<path d="M231.798 432.374H205.708V451.454L231.798 445.824V432.374Z" fill="#EBEBEB"/>
<path d="M240.498 366.294H231.798V525.354H240.498V366.294Z" fill="#EBEBEB"/>
<path d="M519.018 389.604H185.788V438.564H519.018V389.604Z" fill="#F5F5F5"/>
<path d="M523.918 389.584H519.028V438.544H523.918V389.584Z" fill="#EBEBEB"/>
<path d="M392.438 339.674H327.288L281.218 385.744V450.894L327.288 496.964H392.438L438.498 450.894V385.744L392.438 339.674Z" fill="#FAFAFA"/>
<path d="M389.448 346.864H330.268L288.408 388.724V447.914L330.268 489.774H389.448L431.308 447.914V388.724L389.448 346.864Z" fill="#E0E0E0"/>
<path d="M302.668 425.154L311.008 424.414C311.078 425.954 311.448 427.465 312.098 428.864C312.443 429.597 312.991 430.216 313.677 430.649C314.362 431.081 315.157 431.308 315.968 431.304C316.531 431.354 317.098 431.268 317.62 431.052C318.143 430.836 318.605 430.497 318.968 430.064C319.657 429.219 320.012 428.152 319.968 427.064C319.971 426.039 319.618 425.046 318.968 424.254C317.709 423.097 316.167 422.293 314.498 421.924C311.342 421.124 308.487 419.425 306.278 417.034C304.557 414.808 303.678 412.045 303.798 409.234C303.777 407.187 304.211 405.162 305.068 403.304C305.869 401.505 307.198 399.991 308.878 398.964C311.016 397.787 313.442 397.236 315.878 397.374C317.383 397.269 318.893 397.47 320.318 397.965C321.742 398.46 323.052 399.239 324.168 400.254C326.068 402.164 327.168 405.254 327.568 409.394L319.308 410.094C319.233 408.657 318.755 407.271 317.928 406.094C317.557 405.671 317.093 405.339 316.572 405.126C316.052 404.913 315.489 404.823 314.928 404.864C314.5 404.833 314.071 404.9 313.672 405.06C313.274 405.219 312.917 405.466 312.628 405.784C312.104 406.41 311.83 407.207 311.858 408.024C311.852 408.657 312.076 409.272 312.488 409.754C313.331 410.516 314.37 411.029 315.488 411.234C318.397 411.994 321.172 413.194 323.718 414.794C325.31 415.917 326.562 417.456 327.338 419.244C328.107 421.124 328.488 423.142 328.458 425.174C328.495 427.637 327.99 430.078 326.978 432.324C326.095 434.372 324.622 436.113 322.748 437.324C320.681 438.522 318.315 439.108 315.928 439.014C311.121 439.014 307.788 437.68 305.928 435.014C303.944 432.095 302.815 428.68 302.668 425.154Z" fill="white"/>
<path d="M330.808 398.144H357.498V408.144H348.608V438.524H339.838V408.114H330.948L330.808 398.144Z" fill="white"/>
<path d="M358.938 418.354C358.938 411.761 360.228 406.627 362.808 402.954C364.06 401.256 365.692 399.876 367.575 398.924C369.457 397.972 371.536 397.475 373.645 397.472C375.754 397.469 377.835 397.96 379.72 398.907C381.605 399.854 383.241 401.23 384.498 402.924C387.098 406.524 388.398 411.567 388.398 418.054C388.517 421.992 387.949 425.921 386.718 429.664C385.795 432.417 384.122 434.859 381.888 436.714C379.632 438.434 376.853 439.324 374.018 439.234C371.209 439.344 368.436 438.583 366.078 437.054C363.748 435.302 361.976 432.912 360.978 430.174C359.539 426.403 358.846 422.389 358.938 418.354ZM367.698 418.354C367.698 422.434 368.234 425.357 369.308 427.124C369.604 427.697 370.011 428.205 370.505 428.62C370.998 429.036 371.569 429.349 372.184 429.543C372.799 429.738 373.446 429.808 374.089 429.752C374.731 429.695 375.356 429.512 375.928 429.214C376.815 428.742 377.54 428.014 378.008 427.124C379.008 425.374 379.488 422.244 379.488 417.744C379.688 414.872 379.137 411.998 377.888 409.404C377.455 408.604 376.811 407.937 376.027 407.475C375.243 407.013 374.348 406.774 373.438 406.784C372.552 406.793 371.686 407.048 370.936 407.519C370.186 407.99 369.581 408.66 369.188 409.454C368.194 411.314 367.698 414.314 367.698 418.454V418.354Z" fill="white"/>
<path d="M392.998 398.144H407.558C408.921 398.052 410.285 398.299 411.529 398.863C412.773 399.426 413.858 400.289 414.688 401.374C416.425 404.1 417.251 407.307 417.048 410.534C417.246 413.912 416.341 417.264 414.468 420.084C413.535 421.256 412.329 422.182 410.955 422.782C409.582 423.382 408.082 423.636 406.588 423.524H401.728V438.524H392.938L392.998 398.144ZM401.728 415.354H403.878C404.528 415.424 405.185 415.347 405.801 415.129C406.418 414.911 406.977 414.557 407.438 414.094C408.14 413.179 408.494 412.045 408.438 410.894C408.514 409.75 408.234 408.612 407.638 407.634C407.24 407.15 406.726 406.775 406.143 406.544C405.561 406.313 404.929 406.234 404.308 406.314H401.708L401.728 415.354Z" fill="white"/>
<path d="M500.058 587.244C496.408 587.964 494.438 588.244 494.438 588.244C466.833 593.145 438.992 596.613 411.028 598.634C409.258 598.764 407.478 598.884 405.708 598.974C382.598 600.477 359.423 600.704 336.288 599.654C336.408 578.024 338.108 561.344 341.978 552.224C366.598 494.224 392.428 480.384 392.428 480.384L470.648 489.654C470.648 489.654 478.718 492.474 500.058 587.244Z" fill="#2F2E41"/>
<path d="M362.498 548.624C356.517 548.613 350.586 547.529 344.988 545.424L345.288 544.714C345.608 544.844 376.758 557.654 393.598 530.514C410.598 503.144 415.508 487.714 415.598 487.514L416.338 487.744C416.288 487.894 411.338 503.414 394.338 530.874C385.428 545.144 372.768 548.624 362.498 548.624Z" fill="white"/>
<path d="M491.818 564.654C488.428 564.654 479.818 564.064 465.548 559.314C446.828 553.074 449.548 492.194 449.678 489.614H450.458C450.458 490.244 447.628 552.494 465.798 558.544C484.128 564.654 493.278 563.794 493.368 563.784L493.448 564.554C492.907 564.618 492.363 564.651 491.818 564.654Z" fill="white"/>
<path d="M472.978 591.724L472.208 591.834L465.328 559.234V559.024L466.088 558.864L466.228 559.524L472.978 591.724Z" fill="white"/>
<path d="M369.228 600.264H368.438L363.928 548.604L363.878 547.974L364.658 547.914L364.718 548.564L369.228 600.264Z" fill="white"/>
<g style="mix-blend-mode:multiply" opacity="0.12">
<path d="M470.648 490.654L390.438 482.464C390.438 482.464 333.178 534.074 337.488 581.464L470.648 490.654Z" fill="black"/>
</g>
<path d="M551.118 451.754C549.408 350.434 482.708 236.344 482.708 236.344L482.658 236.464C481.388 233.954 461.658 210.214 442.108 214.004C381.168 225.824 268.888 390.254 248.288 414.204C245.618 417.294 344.128 498.664 471.648 471.804C523.988 460.784 551.118 455.154 551.118 451.754Z" fill="#2F2E41"/>
<path d="M468.938 226.924C466.478 225.294 463.208 225.294 460.388 225.604C455.8 226.221 451.306 227.403 447.008 229.124C433.408 234.194 420.618 241.494 408.288 249.074C390.889 259.883 374.072 271.602 357.908 284.184C338.435 299.184 319.681 315.054 301.648 331.794C281.858 350.104 262.918 369.344 245.038 389.524C242.798 392.057 240.578 394.601 238.378 397.154C237.538 398.154 238.958 399.564 239.808 398.584C257.453 378.153 276.12 358.628 295.738 340.084C313.738 323.057 332.445 306.844 351.858 291.444C368.25 278.389 385.288 266.167 402.908 254.824C415.748 246.634 429.028 238.754 443.098 232.824C447.709 230.793 452.504 229.209 457.418 228.094C460.418 227.474 463.748 227.094 466.578 227.994C467.055 228.147 467.506 228.37 467.918 228.654C468.998 229.374 470.008 227.654 468.918 226.914L468.938 226.924Z" fill="#2F2E41"/>
<path d="M424.578 286.644C424.578 286.644 419.118 338.184 418.478 342.244C418.478 342.244 441.568 366.534 463.948 344.104C463.948 344.104 460.168 331.854 453.278 300.334L424.578 286.644Z" fill="#F9B499"/>
<path d="M455.188 297.204C454.908 304.054 445.188 311.974 438.798 312.104C431.028 312.264 424.678 299.834 424.098 294.234C423.618 289.514 435.718 284.094 442.098 284.354C448.478 284.614 455.498 290.364 455.188 297.204Z" fill="#F7A48B"/>
<path d="M412.388 268.774L421.268 268.144L421.968 278.044L413.088 278.664C412.439 278.711 411.787 278.63 411.169 278.425C410.552 278.22 409.981 277.895 409.489 277.468C408.998 277.042 408.595 276.522 408.305 275.94C408.015 275.357 407.842 274.723 407.798 274.074C407.715 272.765 408.15 271.476 409.008 270.484C409.867 269.493 411.081 268.878 412.388 268.774Z" fill="#F9B499"/>
<path d="M412.228 271.434L415.888 271.174L416.178 275.254L412.518 275.514C412.248 275.54 411.976 275.511 411.717 275.428C411.459 275.346 411.22 275.211 411.015 275.034C410.811 274.856 410.644 274.639 410.526 274.394C410.408 274.15 410.34 273.885 410.328 273.614C410.304 273.345 410.334 273.073 410.417 272.816C410.5 272.559 410.635 272.321 410.812 272.118C410.99 271.914 411.207 271.748 411.45 271.631C411.693 271.513 411.958 271.446 412.228 271.434Z" fill="#F7A48B"/>
<path d="M472.758 274.924L463.878 274.374L464.488 264.474L473.358 265.024C474.667 265.114 475.888 265.715 476.758 266.697C477.628 267.679 478.077 268.963 478.008 270.274C477.918 271.583 477.317 272.804 476.335 273.673C475.353 274.543 474.068 274.992 472.758 274.924Z" fill="#F9B499"/>
<path d="M473.318 267.784L469.658 267.504L469.338 271.584L472.998 271.874C473.54 271.913 474.075 271.736 474.487 271.382C474.899 271.028 475.154 270.525 475.198 269.984C475.225 269.715 475.198 269.443 475.117 269.185C475.037 268.926 474.904 268.687 474.729 268.482C474.553 268.276 474.337 268.108 474.095 267.988C473.852 267.868 473.588 267.799 473.318 267.784Z" fill="#F7A48B"/>
<path d="M445.828 240.253C462.318 241.303 472.278 255.723 471.228 272.253L471.148 273.514C470.148 289.993 456.148 303.893 442.288 302.783H442.168C431.248 301.393 413.308 285.984 414.358 269.494L414.438 268.234C414.639 264.327 415.614 260.5 417.305 256.973C418.996 253.447 421.37 250.291 424.29 247.688C427.21 245.086 430.617 243.088 434.314 241.812C438.011 240.536 441.925 240.006 445.828 240.253Z" fill="#F9B499"/>
<path d="M428.718 240.924C463.108 254.724 472.588 265.554 472.588 265.554C472.588 265.554 474.068 226.394 432.068 232.504C404.928 236.484 426.618 240.124 428.718 240.924Z" fill="#2F2E41"/>
<path d="M432.208 239.854C432.208 239.854 423.038 259.184 420.468 262.654C417.528 266.654 411.358 263.654 411.358 263.654C411.358 263.654 408.498 236.454 432.208 239.854Z" fill="#2F2E41"/>
<path d="M463.948 344.104L532.498 362.504L545.308 399.044C546.412 402.193 546.745 405.562 546.28 408.867C545.814 412.172 544.563 415.318 542.632 418.04C540.701 420.762 538.146 422.982 535.18 424.514C532.215 426.046 528.926 426.845 525.588 426.844H491.238C491.238 426.844 484.028 474.704 484.028 493.234L375.118 479.154L376.988 402.154C376.988 402.154 309.068 428.924 282.308 424.784C282.308 424.784 251.428 406.264 268.928 382.594C268.928 382.594 395.008 330.974 414.308 335.684C414.308 335.684 425.368 352.744 441.838 352.744C458.308 352.744 463.948 344.104 463.948 344.104Z" fill="#00C975"/>
<g opacity="0.2">
<path d="M399.378 335.534C399.378 335.534 406.218 359.314 439.678 363.534C472.568 367.644 478.328 347.904 478.328 347.904" stroke="white" strokeWidth="1.27" stroke-miterlimit="10"/>
<path d="M374.708 461.364L484.908 473.704" stroke="white" strokeWidth="1.27" stroke-miterlimit="10"/>
</g>
<g style="mix-blend-mode:multiply" opacity="0.12">
<path d="M376.988 402.144L484.028 493.234L375.118 479.154L376.988 402.144Z" fill="black"/>
</g>
<path d="M513.768 444.984C509.394 444.365 505.21 442.789 501.513 440.369C497.817 437.949 494.7 434.744 492.383 430.982C490.066 427.221 488.606 422.995 488.107 418.605C487.609 414.215 488.083 409.77 489.498 405.584L503.048 365.494L547.908 371.924L548.088 415.134C548.098 419.448 547.18 423.715 545.396 427.643C543.612 431.571 541.004 435.07 537.748 437.901C534.493 440.732 530.667 442.83 526.529 444.052C522.391 445.275 518.039 445.592 513.768 444.984Z" fill="#F7A48B"/>
<path d="M501.688 405.104C501.688 405.104 472.688 366.934 477.908 365.314C481.288 364.314 490.338 369.364 496.348 373.114C499.048 374.804 502.568 372.824 502.988 369.384C504.258 359.044 506.468 340.114 507.428 326.384C508.808 306.594 514.218 305.844 517.728 339.534C521.238 373.224 523.198 310.464 527.538 311.084C531.878 311.704 530.228 346.634 533.828 348.734C537.428 350.834 538.118 315.264 545.128 314.074C552.138 312.884 545.798 348.724 547.538 350.794C549.278 352.864 553.818 327.794 556.758 327.944C567.118 328.374 548.818 403.694 546.548 408.494C546.548 408.494 540.148 419.074 521.618 417.024C521.598 417.074 509.948 417.064 501.688 405.104Z" fill="#F9B499"/>
<path d="M378.588 356.314C377.268 356.314 376.158 353.564 375.998 349.924L368.498 180.924C368.318 176.924 369.348 173.264 370.788 172.784C372.228 172.304 373.548 175.144 373.718 179.154L381.138 348.224C381.318 352.224 380.318 355.814 378.888 356.324L378.588 356.314Z" fill="#E1E1E2"/>
<path d="M373.268 217.734C429.402 217.734 474.908 172.228 474.908 116.094C474.908 59.9599 429.402 14.4541 373.268 14.4541C317.134 14.4541 271.628 59.9599 271.628 116.094C271.628 172.228 317.134 217.734 373.268 217.734Z" fill="#00C975"/>
<path d="M431.277 174.118C463.331 142.064 463.331 90.094 431.277 58.0398C399.222 25.9855 347.252 25.9856 315.198 58.0398C283.144 90.094 283.144 142.064 315.198 174.118C347.252 206.173 399.222 206.173 431.277 174.118Z" fill="white"/>
<path d="M426.568 102.213C419.828 93.1034 406.848 102.213 402.958 111.783C401.905 114.157 401.21 116.675 400.898 119.253L396.618 90.0234L393.228 62.3134C392.848 59.957 391.57 57.8395 389.662 56.4054C387.754 54.9713 385.364 54.3321 382.995 54.6219C380.626 54.9118 378.461 56.1081 376.955 57.9599C375.449 59.8117 374.719 62.1749 374.918 64.5534L374.068 57.6534C373.919 56.4525 373.535 55.2926 372.938 54.2402C372.34 53.1877 371.542 52.2631 370.587 51.5193C369.633 50.7755 368.541 50.2271 367.374 49.9052C366.208 49.5833 364.989 49.4944 363.788 49.6434C362.587 49.7925 361.427 50.1766 360.375 50.7739C359.323 51.3712 358.398 52.1699 357.654 53.1245C356.91 54.0791 356.362 55.1708 356.04 56.3374C355.718 57.5039 355.629 58.7225 355.778 59.9234L356.958 69.5334C356.651 67.1095 355.396 64.9063 353.467 63.4067C351.538 61.9071 349.093 61.2334 346.668 61.5334C346.281 61.5782 345.897 61.6484 345.518 61.7434C343.346 62.3039 341.452 63.6337 340.186 65.4858C338.921 67.3379 338.371 69.5863 338.638 71.8134L340.108 83.8134C339.808 81.394 338.56 79.1925 336.639 77.6925C334.717 76.1925 332.278 75.5167 329.858 75.8134C329.461 75.8616 329.066 75.9351 328.678 76.0334C326.517 76.587 324.63 77.9054 323.367 79.7442C322.103 81.583 321.55 83.8175 321.808 86.0334L324.748 110.033L326.848 127.213L329.628 149.783C331.628 165.913 337.888 175.013 347.228 179.123C361.558 185.413 387.818 185.483 399.608 175.913C409.938 167.543 416.608 147.383 418.158 134.913C419.708 122.443 429.308 105.923 426.568 102.213Z" fill="#2F2E41"/>
<path d="M425.325 32.2418L304.444 186.907L321.179 199.987L442.06 45.3214L425.325 32.2418Z" fill="#00C975"/>
<path d="M180.348 206.783H78.188V160.663L180.348 39.2334H229.188V163.373H254.498V206.923H229.198V244.653H180.388L180.348 206.783ZM180.348 163.273V99.7534L126.348 163.273H180.348Z" fill="#2F2E41"/>
<path d="M628.588 39.2341V244.514H571.788V109.994C563.505 116.431 554.652 122.097 545.338 126.924C534.935 131.945 524.131 136.09 513.038 139.314V93.3141C532.125 87.1408 546.948 79.7474 557.508 71.1341C568.074 62.4995 576.546 51.5828 582.288 39.2041L628.588 39.2341Z" fill="#2F2E41"/>
<path d="M399.808 357.303C400.358 355.813 420.468 348.743 417.808 345.513C415.148 342.283 396.808 352.163 396.878 349.723C396.948 347.283 415.188 338.073 414.268 335.723C413.348 333.373 380.768 350.383 396.938 338.903C413.108 327.423 411.168 324.903 400.678 329.903C393.498 333.283 383.158 337.603 377.498 339.923C377.099 340.123 376.657 340.218 376.211 340.2C375.766 340.182 375.333 340.052 374.951 339.821C374.57 339.591 374.253 339.267 374.03 338.881C373.808 338.495 373.687 338.059 373.678 337.613C373.868 333.473 373.858 327.393 372.358 325.973C370.018 323.763 358.898 349.503 358.898 349.503C352.038 348.723 310.568 360.713 282.898 372.073C265.788 379.073 255.038 394.923 264.148 411.073L265.868 414.073C275.238 430.693 303.598 430.943 318.508 419.163C340.508 401.783 366.088 378.393 370.038 373.363C373.138 373.133 416.808 360.813 414.038 355.363C413.328 353.923 399.268 358.783 399.808 357.303Z" fill="#F9B499"/>
</svg>
