<svg width="464" height="188" viewBox="0 0 464 188" fill="none" xmlns="http://www.w3.org/2000/svg">
<path d="M60.5781 129.391C60.5781 132.484 60.1719 135.469 59.3594 138.344C58.5781 141.188 57.4531 143.859 55.9844 146.359C54.5156 148.828 52.7656 151.094 50.7344 153.156C48.7031 155.188 46.4375 156.938 43.9375 158.406C41.4375 159.875 38.75 161.016 35.875 161.828C33.0312 162.609 30.0625 163 26.9688 163H6.71875V95.7812H26.9688C30.0625 95.7812 33.0312 96.1875 35.875 97C38.75 97.7812 41.4375 98.9062 43.9375 100.375C46.4375 101.844 48.7031 103.609 50.7344 105.672C52.7656 107.703 54.5156 109.969 55.9844 112.469C57.4531 114.938 58.5781 117.609 59.3594 120.484C60.1719 123.328 60.5781 126.297 60.5781 129.391ZM47.125 129.391C47.125 126.609 46.5938 124 45.5312 121.562C44.5 119.125 43.0625 117 41.2188 115.188C39.4062 113.344 37.2656 111.891 34.7969 110.828C32.3594 109.766 29.75 109.234 26.9688 109.234H20.2656V149.547H26.9688C29.75 149.547 32.3594 149.031 34.7969 148C37.2656 146.938 39.4062 145.5 41.2188 143.688C43.0625 141.844 44.5 139.703 45.5312 137.266C46.5938 134.797 47.125 132.172 47.125 129.391ZM109.094 136.141V122.688C109.094 120.844 108.734 119.109 108.016 117.484C107.328 115.828 106.375 114.391 105.156 113.172C103.938 111.953 102.5 111 100.844 110.312C99.2188 109.594 97.4844 109.234 95.6406 109.234C93.7969 109.234 92.0469 109.594 90.3906 110.312C88.7656 111 87.3438 111.953 86.125 113.172C84.9062 114.391 83.9375 115.828 83.2188 117.484C82.5312 119.109 82.1875 120.844 82.1875 122.688V136.141H109.094ZM122.547 163H109.094V149.547H82.1875V163H68.7812V122.688C68.7812 118.969 69.4844 115.484 70.8906 112.234C72.2969 108.953 74.2031 106.094 76.6094 103.656C79.0469 101.219 81.8906 99.2969 85.1406 97.8906C88.4219 96.4844 91.9219 95.7812 95.6406 95.7812C99.3594 95.7812 102.844 96.4844 106.094 97.8906C109.375 99.2969 112.234 101.219 114.672 103.656C117.109 106.094 119.031 108.953 120.438 112.234C121.844 115.484 122.547 118.969 122.547 122.688V163ZM130.281 115.938C130.281 113.156 130.812 110.547 131.875 108.109C132.938 105.672 134.375 103.547 136.188 101.734C138.031 99.8906 140.172 98.4375 142.609 97.375C145.047 96.3125 147.656 95.7812 150.438 95.7812H181.281V109.234H150.438C149.5 109.234 148.625 109.406 147.812 109.75C147 110.094 146.281 110.578 145.656 111.203C145.062 111.797 144.594 112.5 144.25 113.312C143.906 114.125 143.734 115 143.734 115.938C143.734 116.875 143.906 117.766 144.25 118.609C144.594 119.422 145.062 120.141 145.656 120.766C146.281 121.359 147 121.828 147.812 122.172C148.625 122.516 149.5 122.688 150.438 122.688H163.891C166.672 122.688 169.281 123.219 171.719 124.281C174.188 125.312 176.328 126.75 178.141 128.594C179.984 130.406 181.422 132.547 182.453 135.016C183.516 137.453 184.047 140.062 184.047 142.844C184.047 145.625 183.516 148.234 182.453 150.672C181.422 153.109 179.984 155.25 178.141 157.094C176.328 158.906 174.188 160.344 171.719 161.406C169.281 162.469 166.672 163 163.891 163H134.031V149.547H163.891C164.828 149.547 165.703 149.375 166.516 149.031C167.328 148.688 168.031 148.219 168.625 147.625C169.25 147 169.734 146.281 170.078 145.469C170.422 144.656 170.594 143.781 170.594 142.844C170.594 141.906 170.422 141.031 170.078 140.219C169.734 139.406 169.25 138.703 168.625 138.109C168.031 137.484 167.328 137 166.516 136.656C165.703 136.312 164.828 136.141 163.891 136.141H150.438C147.656 136.141 145.047 135.609 142.609 134.547C140.172 133.484 138.031 132.047 136.188 130.234C134.375 128.391 132.938 126.25 131.875 123.812C130.812 121.344 130.281 118.719 130.281 115.938ZM206.359 163H192.906V95.7812H206.359V122.688H233.219V95.7812H246.672V163H233.219V136.141H206.359V163ZM313.047 129.391C313.047 132.484 312.641 135.469 311.828 138.344C311.047 141.188 309.922 143.859 308.453 146.359C306.984 148.828 305.234 151.094 303.203 153.156C301.172 155.188 298.906 156.938 296.406 158.406C293.906 159.875 291.219 161.016 288.344 161.828C285.5 162.609 282.531 163 279.438 163H259.188V95.7812H279.438C282.531 95.7812 285.5 96.1875 288.344 97C291.219 97.7812 293.906 98.9062 296.406 100.375C298.906 101.844 301.172 103.609 303.203 105.672C305.234 107.703 306.984 109.969 308.453 112.469C309.922 114.938 311.047 117.609 311.828 120.484C312.641 123.328 313.047 126.297 313.047 129.391ZM299.594 129.391C299.594 126.609 299.062 124 298 121.562C296.969 119.125 295.531 117 293.688 115.188C291.875 113.344 289.734 111.891 287.266 110.828C284.828 109.766 282.219 109.234 279.438 109.234H272.734V149.547H279.438C282.219 149.547 284.828 149.031 287.266 148C289.734 146.938 291.875 145.5 293.688 143.688C295.531 141.844 296.969 139.703 298 137.266C299.062 134.797 299.594 132.172 299.594 129.391ZM335.453 163H322V95.7812H335.453V163ZM401.734 163H387.344L361.422 118.75V163H347.969V95.7812H362.359L388.281 140.078V95.7812H401.734V163ZM460.328 163H414.25V95.7812H460.328V109.234H427.703V122.688H449.781V136.141H427.703V149.547H460.328V163Z" fill="white"/>
<path d="M197.488 11.776C195.472 11.776 194.032 12.184 193.168 13C192.352 13.768 191.944 15.064 191.944 16.888V33.88C191.944 36.424 191.512 38.248 190.648 39.352C189.784 40.456 188.368 41.296 186.4 41.872C188.368 42.4 189.784 43.216 190.648 44.32C191.56 45.424 192.016 47.248 192.016 49.792V66.712C192.016 68.584 192.424 69.904 193.24 70.672C194.056 71.44 195.472 71.824 197.488 71.824V76.648C193.312 76.648 190.36 75.832 188.632 74.2C186.904 72.568 186.04 69.976 186.04 66.424V49.864C186.04 47.944 185.68 46.576 184.96 45.76C184.24 44.944 183.064 44.536 181.432 44.536V39.136C183.112 39.136 184.288 38.728 184.96 37.912C185.68 37.048 186.04 35.656 186.04 33.736V17.176C186.04 13.624 186.904 11.056 188.632 9.472C190.36 7.84 193.312 7.024 197.488 7.024V11.776Z" fill="white"/>
<path d="M267.512 7.024C271.688 7.024 274.64 7.84 276.368 9.472C278.144 11.056 279.032 13.624 279.032 17.176V33.736C279.032 35.656 279.368 37.048 280.04 37.912C280.76 38.728 281.96 39.136 283.64 39.136V44.536C282.008 44.536 280.832 44.944 280.112 45.76C279.392 46.576 279.032 47.944 279.032 49.864V66.424C279.032 69.976 278.144 72.568 276.368 74.2C274.64 75.832 271.688 76.648 267.512 76.648V71.824C269.528 71.824 270.944 71.44 271.76 70.672C272.624 69.904 273.056 68.584 273.056 66.712V49.792C273.056 47.248 273.488 45.448 274.352 44.392C275.216 43.288 276.656 42.448 278.672 41.872C276.656 41.296 275.216 40.456 274.352 39.352C273.488 38.248 273.056 36.424 273.056 33.88V16.888C273.056 15.064 272.624 13.768 271.76 13C270.944 12.184 269.552 11.776 267.584 11.776L267.512 7.024Z" fill="white"/>
<path d="M210.036 17.6651C207.505 14.4632 202.813 17.4449 204.868 22.4799C206.237 25.8391 208.87 34.0437 212.584 39.9655C216.199 45.7276 220.089 45.312 224.011 46.6263C224.229 46.6993 224.438 46.797 224.638 46.9109L226.555 48.0054C227.001 48.26 227.394 48.598 227.712 49.0011L244.238 69.9355C245.687 71.7708 248.394 71.9775 250.104 70.3833L250.972 69.5751V69.5751C250.984 69.5645 250.992 69.5553 250.982 69.5429C250.223 68.5797 232.46 46.0744 225.414 37.1496C218.403 28.2693 211.267 19.2249 210.036 17.6651Z" fill="white"/>
<path d="M257.689 22.6467L250.699 31.2607C250.251 31.8122 249.48 31.8638 248.973 31.3781L248.728 31.1447C248.224 30.6608 248.174 29.823 248.621 29.2716L255.645 20.618C256.798 19.1997 256.265 17.9332 255.42 17.126C254.578 16.3207 253.355 15.904 252.202 17.3243L245.178 25.9779C244.732 26.5275 243.959 26.5811 243.454 26.0953L243.21 25.862C242.703 25.3781 242.655 24.5384 243.101 23.9888L250.092 15.3749C252.157 12.8329 248.755 9.72938 246.739 12.2129C244.352 15.1526 240.158 20.3196 240.065 20.4339C240.062 20.4374 240.062 20.4377 240.059 20.4413C236.339 24.9927 236.381 27.1384 236.881 30.1467C237.288 32.5728 237.897 34.3202 235.585 37.1682L233.571 39.65C232.754 40.6567 232.744 42.0953 233.548 43.1126V43.1126C234.647 44.5046 236.754 44.5185 237.872 43.1413L239.601 41.0108C241.911 38.1646 243.585 38.6015 245.852 38.7328C248.665 38.8981 250.63 38.6725 254.32 34.0955C254.322 34.0922 254.322 34.0921 254.325 34.0888C254.41 33.9838 258.61 28.8061 261 25.8636C263.015 23.3801 259.752 20.1066 257.689 22.6467Z" fill="white"/>
<path d="M225.473 50.5684C225.172 50.397 224.792 50.4684 224.574 50.7372L211.138 67.2894C210.229 68.4089 210.331 70.0383 211.373 71.0357V71.0357C212.542 72.1555 214.419 72.038 215.439 70.7809L226.631 56.9946C227.811 55.5414 227.825 53.4645 226.665 51.9953L225.678 50.7447C225.622 50.6733 225.552 50.6134 225.473 50.5684V50.5684Z" fill="white"/>
</svg>
