<svg id="visual" viewBox="0 0 1920 1080" width="1920" height="1080" xmlns="http://www.w3.org/2000/svg" xmlns:xlink="http://www.w3.org/1999/xlink" version="1.1"><rect x="0" y="0" width="1920" height="1080" fill="#2C262E"></rect><path d="M0 692L45.7 684C91.3 676 182.7 660 274.2 666.7C365.7 673.3 457.3 702.7 548.8 712.5C640.3 722.3 731.7 712.7 823 707.8C914.3 703 1005.7 703 1097 693.8C1188.3 684.7 1279.7 666.3 1371.2 660.8C1462.7 655.3 1554.3 662.7 1645.8 671.2C1737.3 679.7 1828.7 689.3 1874.3 694.2L1920 699L1920 1081L1874.3 1081C1828.7 1081 1737.3 1081 1645.8 1081C1554.3 1081 1462.7 1081 1371.2 1081C1279.7 1081 1188.3 1081 1097 1081C1005.7 1081 914.3 1081 823 1081C731.7 1081 640.3 1081 548.8 1081C457.3 1081 365.7 1081 274.2 1081C182.7 1081 91.3 1081 45.7 1081L0 1081Z" fill="#e5c751"></path><path d="M0 771L45.7 768C91.3 765 182.7 759 274.2 750C365.7 741 457.3 729 548.8 734.8C640.3 740.7 731.7 764.3 823 786.2C914.3 808 1005.7 828 1097 823.8C1188.3 819.7 1279.7 791.3 1371.2 782.7C1462.7 774 1554.3 785 1645.8 798.7C1737.3 812.3 1828.7 828.7 1874.3 836.8L1920 845L1920 1081L1874.3 1081C1828.7 1081 1737.3 1081 1645.8 1081C1554.3 1081 1462.7 1081 1371.2 1081C1279.7 1081 1188.3 1081 1097 1081C1005.7 1081 914.3 1081 823 1081C731.7 1081 640.3 1081 548.8 1081C457.3 1081 365.7 1081 274.2 1081C182.7 1081 91.3 1081 45.7 1081L0 1081Z" fill="#e5a13e"></path><path d="M0 802L45.7 801.2C91.3 800.3 182.7 798.7 274.2 798.8C365.7 799 457.3 801 548.8 804.8C640.3 808.7 731.7 814.3 823 829.5C914.3 844.7 1005.7 869.3 1097 884.8C1188.3 900.3 1279.7 906.7 1371.2 911C1462.7 915.3 1554.3 917.7 1645.8 917.7C1737.3 917.7 1828.7 915.3 1874.3 914.2L1920 913L1920 1081L1874.3 1081C1828.7 1081 1737.3 1081 1645.8 1081C1554.3 1081 1462.7 1081 1371.2 1081C1279.7 1081 1188.3 1081 1097 1081C1005.7 1081 914.3 1081 823 1081C731.7 1081 640.3 1081 548.8 1081C457.3 1081 365.7 1081 274.2 1081C182.7 1081 91.3 1081 45.7 1081L0 1081Z" fill="#de7a39"></path><path d="M0 964L45.7 958.7C91.3 953.3 182.7 942.7 274.2 940.8C365.7 939 457.3 946 548.8 947C640.3 948 731.7 943 823 936.2C914.3 929.3 1005.7 920.7 1097 921C1188.3 921.3 1279.7 930.7 1371.2 929.7C1462.7 928.7 1554.3 917.3 1645.8 918.8C1737.3 920.3 1828.7 934.7 1874.3 941.8L1920 949L1920 1081L1874.3 1081C1828.7 1081 1737.3 1081 1645.8 1081C1554.3 1081 1462.7 1081 1371.2 1081C1279.7 1081 1188.3 1081 1097 1081C1005.7 1081 914.3 1081 823 1081C731.7 1081 640.3 1081 548.8 1081C457.3 1081 365.7 1081 274.2 1081C182.7 1081 91.3 1081 45.7 1081L0 1081Z" fill="#d0533d"></path><path d="M0 1020L45.7 1015C91.3 1010 182.7 1000 274.2 996C365.7 992 457.3 994 548.8 991.8C640.3 989.7 731.7 983.3 823 988.2C914.3 993 1005.7 1009 1097 1014.5C1188.3 1020 1279.7 1015 1371.2 1010.7C1462.7 1006.3 1554.3 1002.7 1645.8 996.3C1737.3 990 1828.7 981 1874.3 976.5L1920 972L1920 1081L1874.3 1081C1828.7 1081 1737.3 1081 1645.8 1081C1554.3 1081 1462.7 1081 1371.2 1081C1279.7 1081 1188.3 1081 1097 1081C1005.7 1081 914.3 1081 823 1081C731.7 1081 640.3 1081 548.8 1081C457.3 1081 365.7 1081 274.2 1081C182.7 1081 91.3 1081 45.7 1081L0 1081Z" fill="#bb2944"></path></svg>